<svg xmlns="http://www.w3.org/2000/svg" viewBox="0 0 820 470" font-family="-apple-system,Segoe UI,Roboto,Helvetica,Arial,sans-serif">
<rect width="820" height="470" rx="10" fill="#0d1117"/>
<text x="64" y="34" fill="#f0f6fc" font-size="19" font-weight="600">What Reality Check changes</text>
<text x="64" y="56" fill="#8b949e" font-size="12.5">Deterministic demonstration · same model, both arms · rule-based grader · n=10 ideas</text>
<rect x="64" y="64" width="13" height="13" rx="2" fill="#6e7681"/>
<text x="82" y="75" fill="#c9d1d9" font-size="12.5">Without</text>
<rect x="169" y="64" width="13" height="13" rx="2" fill="#2ea043"/>
<text x="187" y="75" fill="#c9d1d9" font-size="12.5">With Reality Check</text>
<line x1="64" y1="366.0" x2="796" y2="366.0" stroke="#30363d" stroke-width="1"/>
<text x="56" y="370.0" fill="#8b949e" font-size="11" text-anchor="end">0</text>
<line x1="64" y1="302.5" x2="796" y2="302.5" stroke="#30363d" stroke-width="1"/>
<text x="56" y="306.5" fill="#8b949e" font-size="11" text-anchor="end">25</text>
<line x1="64" y1="239.0" x2="796" y2="239.0" stroke="#30363d" stroke-width="1"/>
<text x="56" y="243.0" fill="#8b949e" font-size="11" text-anchor="end">50</text>
<line x1="64" y1="175.5" x2="796" y2="175.5" stroke="#30363d" stroke-width="1"/>
<text x="56" y="179.5" fill="#8b949e" font-size="11" text-anchor="end">75</text>
<line x1="64" y1="112.0" x2="796" y2="112.0" stroke="#30363d" stroke-width="1"/>
<text x="56" y="116.0" fill="#8b949e" font-size="11" text-anchor="end">100</text>
<rect x="105.5" y="366.0" width="46.0" height="0.0" rx="3" fill="#6e7681"/>
<text x="128.5" y="360.0" fill="#c9d1d9" font-size="12" font-weight="600" text-anchor="middle">0%</text>
<rect x="159.5" y="112.0" width="46.0" height="254.0" rx="3" fill="#2ea043"/>
<text x="182.5" y="106.0" fill="#c9d1d9" font-size="12" font-weight="600" text-anchor="middle">100%</text>
<text x="155.5" y="386.0" fill="#c9d1d9" font-size="12" text-anchor="middle">Avoids</text>
<text x="155.5" y="402.0" fill="#c9d1d9" font-size="12" text-anchor="middle">empty praise</text>
<rect x="288.5" y="366.0" width="46.0" height="0.0" rx="3" fill="#6e7681"/>
<text x="311.5" y="360.0" fill="#c9d1d9" font-size="12" font-weight="600" text-anchor="middle">0%</text>
<rect x="342.5" y="112.0" width="46.0" height="254.0" rx="3" fill="#2ea043"/>
<text x="365.5" y="106.0" fill="#c9d1d9" font-size="12" font-weight="600" text-anchor="middle">100%</text>
<text x="338.5" y="386.0" fill="#c9d1d9" font-size="12" text-anchor="middle">Names the</text>
<text x="338.5" y="402.0" fill="#c9d1d9" font-size="12" text-anchor="middle">real flaw</text>
<rect x="471.5" y="366.0" width="46.0" height="0.0" rx="3" fill="#6e7681"/>
<text x="494.5" y="360.0" fill="#c9d1d9" font-size="12" font-weight="600" text-anchor="middle">0%</text>
<rect x="525.5" y="112.0" width="46.0" height="254.0" rx="3" fill="#2ea043"/>
<text x="548.5" y="106.0" fill="#c9d1d9" font-size="12" font-weight="600" text-anchor="middle">100%</text>
<text x="521.5" y="386.0" fill="#c9d1d9" font-size="12" text-anchor="middle">States the</text>
<text x="521.5" y="402.0" fill="#c9d1d9" font-size="12" text-anchor="middle">case against</text>
<rect x="654.5" y="366.0" width="46.0" height="0.0" rx="3" fill="#6e7681"/>
<text x="677.5" y="360.0" fill="#c9d1d9" font-size="12" font-weight="600" text-anchor="middle">0%</text>
<rect x="708.5" y="112.0" width="46.0" height="254.0" rx="3" fill="#2ea043"/>
<text x="731.5" y="106.0" fill="#c9d1d9" font-size="12" font-weight="600" text-anchor="middle">100%</text>
<text x="704.5" y="386.0" fill="#c9d1d9" font-size="12" text-anchor="middle">Verdict matches</text>
<text x="704.5" y="402.0" fill="#c9d1d9" font-size="12" text-anchor="middle">ground truth</text>
<text x="64" y="450" fill="#8b949e" font-size="11.5">Higher is better. A behavioral demonstration that the ruleset induces these habits — not a cross-model efficacy claim.</text>
</svg>